<svg width="24" height="24" viewBox="0 0 24 24" fill="none" xmlns="http://www.w3.org/2000/svg">
<path d="M20.7336 19.2558C21.9004 17.8518 22.712 16.1875 23.0996 14.4036C23.4872 12.6198 23.4394 10.7687 22.9604 9.00721C22.4813 7.24568 21.585 5.62544 20.3473 4.28355C19.1097 2.94166 17.567 1.91761 15.8498 1.29802C14.1327 0.678436 12.2916 0.481539 10.4822 0.723989C8.67288 0.966439 6.94854 1.6411 5.45508 2.69091C3.96163 3.74072 2.74298 5.13478 1.90224 6.75517C1.06151 8.37556 0.623405 10.1746 0.625004 12.0001C0.625618 14.6539 1.5608 17.2227 3.26644 19.2558L3.25019 19.2696C3.30707 19.3378 3.37207 19.3963 3.43057 19.4638C3.50369 19.5474 3.5825 19.6263 3.65807 19.7075C3.88557 19.9545 4.11957 20.1918 4.36494 20.4144C4.43969 20.4826 4.51688 20.546 4.59244 20.611C4.85244 20.8353 5.11975 21.0481 5.39682 21.2464C5.43257 21.2708 5.46507 21.3024 5.50082 21.3276V21.3179C7.40378 22.657 9.6739 23.3757 12.0008 23.3757C14.3277 23.3757 16.5979 22.657 18.5008 21.3179V21.3276C18.5366 21.3024 18.5683 21.2708 18.6048 21.2464C18.8811 21.0473 19.1492 20.8353 19.4092 20.611C19.4848 20.546 19.5619 20.4818 19.6367 20.4144C19.8821 20.1909 20.1161 19.9545 20.3436 19.7075C20.4191 19.6263 20.4971 19.5474 20.5711 19.4638C20.6288 19.3963 20.6946 19.3378 20.7514 19.2687L20.7336 19.2558ZM12 5.50012C12.7231 5.50012 13.43 5.71456 14.0313 6.11631C14.6326 6.51807 15.1012 7.0891 15.3779 7.75719C15.6547 8.42528 15.7271 9.16043 15.586 9.86967C15.4449 10.5789 15.0967 11.2304 14.5854 11.7417C14.074 12.2531 13.4225 12.6013 12.7133 12.7424C12.0041 12.8834 11.2689 12.811 10.6008 12.5343C9.93273 12.2576 9.3617 11.7889 8.95994 11.1877C8.55819 10.5864 8.34375 9.87951 8.34375 9.15637C8.34375 8.18668 8.72897 7.2567 9.41465 6.57102C10.1003 5.88534 11.0303 5.50012 12 5.50012ZM5.50569 19.2558C5.51979 18.1889 5.95334 17.1705 6.71255 16.4209C7.47175 15.6713 8.49557 15.2507 9.5625 15.2501H14.4375C15.5044 15.2507 16.5283 15.6713 17.2875 16.4209C18.0467 17.1705 18.4802 18.1889 18.4943 19.2558C16.7124 20.8615 14.3987 21.7502 12 21.7502C9.60129 21.7502 7.28763 20.8615 5.50569 19.2558Z" fill="white"/>
</svg>
