<svg width="24" height="24" viewBox="0 0 24 24" fill="none" xmlns="http://www.w3.org/2000/svg">
<path d="M6.29411 2.04488V5.00662L5.69711 5.59837H9.87424V1.45312L9.27761 2.04488H6.29411Z" fill="black"/>
<path d="M16.6047 5.59823C16.5965 5.55286 16.5849 5.50823 16.58 5.46286C16.3339 5.50018 16.0824 5.47821 15.8465 5.39877C15.6106 5.31932 15.397 5.18471 15.2236 5.00611C15.0162 4.79304 14.8733 4.52561 14.8116 4.23474C14.7498 3.94388 14.7716 3.64147 14.8745 3.36248C14.7981 3.35437 14.7224 3.34083 14.648 3.32198C14.4306 3.26796 14.2273 3.16796 14.0517 3.02873C13.8534 2.8736 13.6958 2.67241 13.5927 2.44261C13.535 2.30827 13.4964 2.16652 13.478 2.02148L13.4544 2.04473H10.4705V5.00611L9.87387 5.59823H16.6047Z" fill="black"/>
<path d="M6.29411 6.19089V9.15189L5.69711 9.74439H9.87424V5.59839L9.27761 6.19089H6.29411Z" fill="black"/>
<path d="M10.4709 6.19089V9.15189L9.87427 9.74439H14.0518V5.59839L13.4548 6.19089H10.4709Z" fill="black"/>
<path d="M19.2147 12.0071C19.123 11.941 19.0263 11.882 18.9256 11.8305V6.8325H18.2285C18.0262 6.8454 17.8234 6.81852 17.6315 6.75338C17.3225 6.65086 17.0534 6.45415 16.862 6.19088H14.648V9.15188L14.0518 9.74438H18.2285L17.6315 10.3365H14.648V11.4701C14.4515 11.4904 14.2524 11.5133 14.0518 11.5387V9.74438L13.4548 10.3365H10.4709V12.1823C10.2699 12.2273 10.0707 12.273 9.87425 12.3191V9.74438L9.27763 10.3365H6.29413V13.2712C6.06988 13.3376 5.86888 13.398 5.69713 13.4509V1.45312H13.4499V0.75H5V23.25H18.9252V16.2334C19.6662 14.5193 20.765 13.1535 19.2147 12.0071ZM18.6616 15.048C18.1186 16.167 17.4069 17.6336 17.7575 19.3444C15.7546 19.2836 14.9476 18.2081 13.9329 16.8563C12.9346 15.5269 11.753 13.953 9.2255 13.2488C11.4751 12.6859 14.2475 12.1249 16.3595 12.1249C17.8149 12.1249 18.4794 12.3908 18.7805 12.6135C19.4904 13.1381 19.3918 13.5431 18.6616 15.048ZM5.69713 22.5469V13.6905C5.82238 13.6972 5.93975 13.7085 6.06012 13.7186C6.78275 13.8176 8.4515 14.1251 9.81913 14.9621C10.475 15.423 10.991 15.9712 11.4376 16.5521C11.6441 16.876 11.8668 17.1893 12.1047 17.4907C13.37 19.3894 14.366 21.2843 17.5306 21.2843C17.2501 20.9422 17.0664 20.5061 16.9501 20.0171C17.2524 20.0685 17.579 20.097 17.9386 20.097C18.032 20.097 18.1302 20.0929 18.2277 20.0891V22.5469H5.69713Z" fill="black"/>
</svg>
