<svg width="22" height="21" viewBox="0 0 22 21" fill="none" xmlns="http://www.w3.org/2000/svg">
<path fill-rule="evenodd" clip-rule="evenodd" d="M2.56787 3.57837C1.06671 5.2945 0.166148 7.45337 0.0027771 9.72755H1.3713C1.53777 7.81976 2.30285 6.01336 3.55726 4.56635L2.56787 3.57837Z" fill="black"/>
<path fill-rule="evenodd" clip-rule="evenodd" d="M4.54524 5.55298C3.5477 6.73473 2.92892 8.18936 2.76941 9.7276L8.71845 9.72619L4.54524 5.55298Z" fill="black"/>
<path fill-rule="evenodd" clip-rule="evenodd" d="M9.7642 0C7.49335 0.155345 5.33482 1.04587 3.61502 2.53691L4.60582 3.52771C6.06242 2.30136 7.86604 1.56119 9.7642 1.4108V0Z" fill="black"/>
<path fill-rule="evenodd" clip-rule="evenodd" d="M9.76423 2.80322C8.23563 2.94951 6.78477 3.54594 5.59525 4.51704L9.76423 8.68603V2.80322Z" fill="black"/>
<path fill-rule="evenodd" clip-rule="evenodd" d="M2.76389 11.261C2.90103 12.8002 3.50431 14.2609 4.49321 15.4483L8.71857 11.2624L2.76389 11.261Z" fill="black"/>
<path fill-rule="evenodd" clip-rule="evenodd" d="M0 11.261C0.148701 13.5262 1.0404 15.6792 2.53691 17.3862L3.50516 16.4278C2.25824 14.9783 1.50802 13.1677 1.36429 11.261H0Z" fill="black"/>
<path fill-rule="evenodd" clip-rule="evenodd" d="M5.53329 16.4757C6.73343 17.4771 8.20829 18.0922 9.76429 18.2402V12.2461L5.53329 16.4757Z" fill="black"/>
<path fill-rule="evenodd" clip-rule="evenodd" d="M3.57837 18.4307C5.30318 19.9416 7.47647 20.8443 9.76419 21V19.6329C7.83989 19.4784 6.0139 18.7186 4.54803 17.4624L3.57837 18.4307Z" fill="black"/>
<path fill-rule="evenodd" clip-rule="evenodd" d="M18.4659 17.3877C19.9618 15.6801 20.8538 13.5276 21.0042 11.2625H19.6625C19.5177 13.1741 18.7639 14.9889 17.5117 16.4406L18.4659 17.3877Z" fill="black"/>
<path fill-rule="evenodd" clip-rule="evenodd" d="M12.2828 11.2625L16.5237 15.4624C17.5185 14.2728 18.1254 12.8072 18.2629 11.2625H12.2828Z" fill="black"/>
<path fill-rule="evenodd" clip-rule="evenodd" d="M18.2558 9.72618C18.0961 8.18305 17.4742 6.72409 16.4715 5.54028L12.2842 9.72618H18.2558Z" fill="black"/>
<path fill-rule="evenodd" clip-rule="evenodd" d="M20.9999 9.72614C20.8364 7.4524 19.9359 5.29401 18.4348 3.57837L17.4581 4.55508C18.7195 6.00267 19.4889 7.8133 19.6553 9.72614H20.9999Z" fill="black"/>
<path fill-rule="evenodd" clip-rule="evenodd" d="M11.2399 21C13.526 20.8435 15.6979 19.9419 17.4229 18.4335L16.4645 17.4751C14.9945 18.7282 13.1656 19.484 11.2399 19.6343V21Z" fill="black"/>
<path fill-rule="evenodd" clip-rule="evenodd" d="M11.2399 18.2431C12.7973 18.0988 14.2749 17.4877 15.4793 16.4898L11.2399 12.2476V18.2431Z" fill="black"/>
</svg>
