<svg width="22" height="19" viewBox="0 0 22 19" fill="none" xmlns="http://www.w3.org/2000/svg">
<path d="M11.4207 0.522127C11.2988 0.427018 11.1485 0.375366 10.9938 0.375366C10.8391 0.375366 10.6889 0.427018 10.5669 0.522127L0.6875 8.22556L1.54206 9.30631L2.75 8.36444V16.875C2.75073 17.2395 2.89583 17.5888 3.15353 17.8465C3.41124 18.1042 3.76055 18.2493 4.125 18.25H17.875C18.2394 18.2493 18.5888 18.1042 18.8465 17.8465C19.1042 17.5888 19.2493 17.2395 19.25 16.875V8.37063L20.4579 9.3125L21.3125 8.23175L11.4207 0.522127ZM12.375 16.875H9.625V11.375H12.375V16.875ZM13.75 16.875V11.375C13.7496 11.0104 13.6047 10.6609 13.3469 10.4031C13.0891 10.1453 12.7396 10.0004 12.375 10H9.625C9.26044 10.0004 8.91091 10.1453 8.65313 10.4031C8.39535 10.6609 8.25036 11.0104 8.25 11.375V16.875H4.125V7.29263L11 1.937L17.875 7.2995V16.875H13.75Z" fill="black"/>
</svg>
